<?xml version="1.0" encoding="UTF-8"?>
<svg width="4000px" height="1590px" viewBox="0 0 4000 1590" version="1.1" xmlns="http://www.w3.org/2000/svg" xmlns:xlink="http://www.w3.org/1999/xlink" style="background: #242426;">
    <!-- Generator: Sketch 47.1 (45422) - http://www.bohemiancoding.com/sketch -->
    <title>lisa-hero-desktop-bg</title>
    <desc>Created with Sketch.</desc>
    <defs>
        <path d="M3830.03713,800.961334 L3917.19263,751.132695 L2603.38301,0 L1289.57334,751.132695 L1459.53621,848.304057 L1372.38071,898.132695 L2686.19038,1649.26542 L4000,898.132695 L3830.03713,800.961334 Z" id="path-1"></path>
        <rect id="path-3" x="3773.7945" y="747" width="127.240596" height="219"></rect>
        <polygon id="path-5" points="4252.55646 -2755 4252.55646 633.000032 1289.57334 2327 1289.57334 -1060.99994"></polygon>
    </defs>
    <g id="/dynasty" stroke="none" stroke-width="1" fill="none" fill-rule="evenodd">
        <g id="lisa-hero-desktop-bg">
            <g id="0" transform="translate(0.000000, -131.000000)">
                <g id="bg" transform="translate(0.000000, 131.000000)">
                    <path d="M2540.46379,800.961334 L2627.61929,751.132695 L1313.80967,0 L0,751.132695 L169.962872,848.304057 L82.8073719,898.132695 L1396.61704,1649.26542 L2710.42666,898.132695 L2540.46379,800.961334 Z" id="Combined-Shape" fill-rule="nonzero" transform="translate(1355.213330, 824.632710) scale(-1, 1) translate(-1355.213330, -824.632710) "></path>
                    <mask id="mask-2" fill="white">
                        <use xlink:href="#path-1"></use>
                    </mask>
                    <g id="Combined-Shape" fill-rule="nonzero"></g>
                    <polygon id="path16754-path" fill="#101011" mask="url(#mask-2)" points="1459.72539 848 1459.72539 1504.43927 885.634941 1832.65889 885.634941 1176.21964"></polygon>
                    <polygon id="path16754-path" fill-opacity="0.5" fill="#101011" mask="url(#mask-2)" points="4252.55646 -2755 4252.55646 633.000032 1289.57334 2327 1289.57334 -1060.99994"></polygon>
                    <mask id="mask-4" fill="white">
                        <use xlink:href="#path-3"></use>
                    </mask>
                    <g id="clip-mask"></g>
                    <mask id="mask-6" fill="white">
                        <use xlink:href="#path-5"></use>
                    </mask>
                    <g id="path16754-path"></g>
                    <polygon id="path16754-path" fill="#101011" mask="url(#mask-6)" transform="translate(4117.391098, 1293.329445) scale(-1, 1) translate(-4117.391098, -1293.329445) " points="4404.43632 801 4404.43632 1457.43927 3830.34587 1785.65889 3830.34587 1129.21964"></polygon>
                </g>
            </g>
        </g>
    </g>
</svg>